<?xml version="1.0" encoding="UTF-8"?>
<svg xmlns="http://www.w3.org/2000/svg" xmlns:xlink="http://www.w3.org/1999/xlink" viewBox="0 0 25 25" width="25px" height="25px">
<g id="surface828837">
<path style="fill-rule:nonzero;fill:rgb(50.196081%,50.196081%,50.196081%);fill-opacity:1;stroke-width:2;stroke-linecap:butt;stroke-linejoin:round;stroke:rgb(50.196081%,50.196081%,50.196081%);stroke-opacity:1;stroke-miterlimit:10;" d="M 134.146511 13.753037 C 147.393602 13.753037 158.246968 24.606402 158.246968 37.853493 L 158.246968 134.146511 C 158.246968 147.393602 147.393602 158.246968 134.146511 158.246968 L 37.853493 158.246968 C 24.606402 158.246968 13.753037 147.393602 13.753037 134.146511 L 13.753037 37.853493 C 13.753037 24.606402 24.606402 13.753037 37.853493 13.753037 Z M 20.634996 37.853493 L 20.634996 134.146511 C 20.634996 143.639806 28.360198 151.365009 37.853493 151.365009 L 134.146511 151.365009 C 143.639806 151.365009 151.365009 143.639806 151.365009 134.146511 L 151.365009 37.853493 C 151.365009 28.360198 143.639806 20.634996 134.146511 20.634996 L 37.853493 20.634996 C 28.360198 20.634996 20.634996 28.360198 20.634996 37.853493 Z M 20.634996 37.853493 " transform="matrix(0.143605,0,0,0.143605,0.15,0.15)"/>
<path style=" stroke:none;fill-rule:nonzero;fill:rgb(50.196081%,50.196081%,50.196081%);fill-opacity:1;" d="M 5.585938 2.125 C 3.683594 2.125 2.125 3.683594 2.125 5.585938 L 2.125 19.414062 C 2.125 21.316406 3.683594 22.875 5.585938 22.875 L 19.414062 22.875 C 21.316406 22.875 22.875 21.316406 22.875 19.414062 L 22.875 5.585938 C 22.875 3.683594 21.316406 2.125 19.414062 2.125 Z M 5.585938 3.113281 L 19.414062 3.113281 C 20.777344 3.113281 21.886719 4.222656 21.886719 5.585938 L 21.886719 19.414062 C 21.886719 20.777344 20.777344 21.886719 19.414062 21.886719 L 5.585938 21.886719 C 4.222656 21.886719 3.113281 20.777344 3.113281 19.414062 L 3.113281 5.585938 C 3.113281 4.222656 4.222656 3.113281 5.585938 3.113281 Z M 5.585938 3.113281 "/>
</g>
</svg>
