<?xml version="1.0" encoding="UTF-8"?>
<svg xmlns="http://www.w3.org/2000/svg" xmlns:xlink="http://www.w3.org/1999/xlink" viewBox="0 0 25 25" width="25px" height="25px">
<g id="surface131246">
<path style="fill-rule:nonzero;fill:rgb(0%,0%,0%);fill-opacity:1;stroke-width:2;stroke-linecap:butt;stroke-linejoin:round;stroke:rgb(50.196081%,50.196081%,50.196081%);stroke-opacity:1;stroke-miterlimit:10;" d="M 99.749998 6.869565 C 105.429345 6.869565 110.076084 11.543478 110.076084 17.195652 L 110.076084 24.070652 L 137.05978 24.070652 C 137.440214 24.016304 137.793475 24.016304 138.17391 24.070652 L 144.478258 24.070652 C 145.728258 24.070652 146.869562 24.722826 147.494562 25.782608 C 148.119562 26.869565 148.119562 28.173912 147.494562 29.260869 C 146.869562 30.320652 145.728258 30.972825 144.478258 30.972825 L 141.027171 30.972825 L 141.027171 154.804344 C 141.027171 160.456518 136.380432 165.130431 130.728258 165.130431 L 41.271738 165.130431 C 35.619564 165.130431 30.972825 160.456518 30.972825 154.804344 L 30.972825 30.972825 L 27.521739 30.972825 C 26.271739 30.972825 25.130434 30.320652 24.505434 29.260869 C 23.880434 28.173912 23.880434 26.869565 24.505434 25.782608 C 25.130434 24.722826 26.271739 24.070652 27.521739 24.070652 L 33.85326 24.070652 C 34.016304 24.043478 34.179347 24.043478 34.342391 24.043478 C 34.532608 24.043478 34.749999 24.043478 34.940217 24.070652 L 61.923912 24.070652 L 61.923912 17.195652 C 61.923912 11.543478 66.570651 6.869565 72.249998 6.869565 Z M 68.798912 17.195652 L 68.798912 24.070652 L 103.201085 24.070652 L 103.201085 17.195652 C 103.201085 15.293478 101.679346 13.771739 99.749998 13.771739 L 72.249998 13.771739 C 70.320651 13.771739 68.798912 15.293478 68.798912 17.195652 Z M 37.847825 154.804344 C 37.847825 156.706518 39.369564 158.228257 41.271738 158.228257 L 130.728258 158.228257 C 132.630432 158.228257 134.152171 156.706518 134.152171 154.804344 L 134.152171 30.972825 L 107.19565 30.972825 C 106.815215 31.027173 106.43478 31.027173 106.054345 30.972825 L 65.891303 30.972825 C 65.538042 31.027173 65.157607 31.027173 64.777172 30.972825 L 37.847825 30.972825 Z M 67.793477 49.124999 C 68.445651 49.777173 68.826085 50.673912 68.798912 51.597825 L 68.798912 137.603258 C 68.826085 138.853258 68.173912 139.994562 67.086955 140.619562 C 66.027172 141.244562 64.695651 141.244562 63.635868 140.619562 C 62.548912 139.994562 61.896738 138.853258 61.923912 137.603258 L 61.923912 51.597825 C 61.896738 49.695651 63.418477 48.146738 65.293477 48.119564 C 66.244564 48.09239 67.141303 48.472825 67.793477 49.124999 Z M 88.418476 49.124999 C 89.097824 49.777173 89.451085 50.673912 89.451085 51.597825 L 89.451085 137.603258 C 89.451085 138.853258 88.798911 139.994562 87.739128 140.619562 C 86.652172 141.244562 85.347824 141.244562 84.260868 140.619562 C 83.201085 139.994562 82.548911 138.853258 82.548911 137.603258 L 82.548911 51.597825 C 82.521737 49.695651 84.043476 48.146738 85.94565 48.119564 C 86.869563 48.09239 87.766302 48.472825 88.418476 49.124999 Z M 109.07065 49.124999 C 109.722824 49.777173 110.103258 50.673912 110.076084 51.597825 L 110.076084 137.603258 C 110.103258 138.853258 109.451084 139.994562 108.364128 140.619562 C 107.304345 141.244562 105.972824 141.244562 104.913041 140.619562 C 103.826085 139.994562 103.173911 138.853258 103.201085 137.603258 L 103.201085 51.597825 C 103.173911 49.695651 104.69565 48.146738 106.597824 48.119564 C 107.521737 48.09239 108.418476 48.472825 109.07065 49.124999 Z M 109.07065 49.124999 " transform="matrix(0.14375,0,0,0.14375,0.1375,0.1375)"/>
<path style=" stroke:none;fill-rule:nonzero;fill:rgb(50.196081%,50.196081%,50.196081%);fill-opacity:1;" d="M 10.523438 1.125 C 9.707031 1.125 9.039062 1.796875 9.039062 2.609375 L 9.039062 3.597656 L 5.160156 3.597656 C 5.132812 3.59375 5.101562 3.59375 5.074219 3.59375 C 5.050781 3.59375 5.027344 3.59375 5.003906 3.597656 L 4.09375 3.597656 C 3.914062 3.597656 3.75 3.691406 3.660156 3.84375 C 3.570312 4 3.570312 4.1875 3.660156 4.34375 C 3.75 4.496094 3.914062 4.589844 4.09375 4.589844 L 4.589844 4.589844 L 4.589844 22.390625 C 4.589844 23.203125 5.257812 23.875 6.070312 23.875 L 18.929688 23.875 C 19.742188 23.875 20.410156 23.203125 20.410156 22.390625 L 20.410156 4.589844 L 20.90625 4.589844 C 21.085938 4.589844 21.25 4.496094 21.339844 4.34375 C 21.429688 4.1875 21.429688 4 21.339844 3.84375 C 21.25 3.691406 21.085938 3.597656 20.90625 3.597656 L 20 3.597656 C 19.945312 3.589844 19.894531 3.589844 19.839844 3.597656 L 15.960938 3.597656 L 15.960938 2.609375 C 15.960938 1.796875 15.292969 1.125 14.476562 1.125 Z M 10.523438 2.117188 L 14.476562 2.117188 C 14.753906 2.117188 14.972656 2.335938 14.972656 2.609375 L 14.972656 3.597656 L 10.027344 3.597656 L 10.027344 2.609375 C 10.027344 2.335938 10.246094 2.117188 10.523438 2.117188 Z M 5.578125 4.589844 L 9.449219 4.589844 C 9.503906 4.597656 9.558594 4.597656 9.609375 4.589844 L 15.382812 4.589844 C 15.4375 4.597656 15.492188 4.597656 15.546875 4.589844 L 19.421875 4.589844 L 19.421875 22.390625 C 19.421875 22.664062 19.203125 22.882812 18.929688 22.882812 L 6.070312 22.882812 C 5.796875 22.882812 5.578125 22.664062 5.578125 22.390625 Z M 9.523438 7.054688 C 9.253906 7.058594 9.035156 7.28125 9.039062 7.554688 L 9.039062 19.917969 C 9.035156 20.097656 9.128906 20.261719 9.285156 20.351562 C 9.4375 20.441406 9.628906 20.441406 9.78125 20.351562 C 9.9375 20.261719 10.03125 20.097656 10.027344 19.917969 L 10.027344 7.554688 C 10.03125 7.421875 9.976562 7.292969 9.882812 7.199219 C 9.789062 7.105469 9.660156 7.050781 9.523438 7.054688 Z M 12.492188 7.054688 C 12.21875 7.058594 12 7.28125 12.003906 7.554688 L 12.003906 19.917969 C 12.003906 20.097656 12.097656 20.261719 12.25 20.351562 C 12.40625 20.441406 12.59375 20.441406 12.75 20.351562 C 12.902344 20.261719 12.996094 20.097656 12.996094 19.917969 L 12.996094 7.554688 C 12.996094 7.421875 12.945312 7.292969 12.847656 7.199219 C 12.753906 7.105469 12.625 7.050781 12.492188 7.054688 Z M 15.460938 7.054688 C 15.1875 7.058594 14.96875 7.28125 14.972656 7.554688 L 14.972656 19.917969 C 14.96875 20.097656 15.0625 20.261719 15.21875 20.351562 C 15.371094 20.441406 15.5625 20.441406 15.714844 20.351562 C 15.871094 20.261719 15.964844 20.097656 15.960938 19.917969 L 15.960938 7.554688 C 15.964844 7.421875 15.910156 7.292969 15.816406 7.199219 C 15.722656 7.105469 15.59375 7.050781 15.460938 7.054688 Z M 15.460938 7.054688 "/>
</g>
</svg>
