<?xml version="1.0" encoding="UTF-8"?>
<svg xmlns="http://www.w3.org/2000/svg" xmlns:xlink="http://www.w3.org/1999/xlink" viewBox="0 0 25 25" width="25px" height="25px">
<g id="surface1036072">
<path style=" stroke:none;fill-rule:nonzero;fill:rgb(0%,0%,0%);fill-opacity:1;" d="M 5.585938 2.125 C 3.65625 2.125 2.125 3.65625 2.125 5.585938 L 2.125 19.414062 C 2.125 21.34375 3.65625 22.875 5.585938 22.875 L 19.414062 22.875 C 21.34375 22.875 22.875 21.34375 22.875 19.414062 L 22.875 7.558594 L 21.886719 8.703125 L 21.886719 19.414062 C 21.886719 20.800781 20.800781 21.886719 19.414062 21.886719 L 5.585938 21.886719 C 4.199219 21.886719 3.113281 20.800781 3.113281 19.414062 L 3.113281 5.585938 C 3.113281 4.199219 4.199219 3.113281 5.585938 3.113281 L 18.628906 3.113281 L 19.414062 2.125 Z M 21.515625 3.976562 L 11.960938 15.246094 L 7.945312 11.496094 L 7.265625 12.222656 L 11.667969 16.3125 L 12.050781 16.667969 L 12.375 16.28125 L 22.257812 4.613281 Z M 21.515625 3.976562 "/>
</g>
</svg>
