<?xml version="1.0" encoding="UTF-8"?>
<svg xmlns="http://www.w3.org/2000/svg" xmlns:xlink="http://www.w3.org/1999/xlink" viewBox="0 0 25 25" width="25px" height="25px">
<g id="surface1044361">
<path style="fill-rule:nonzero;fill:rgb(50.196081%,50.196081%,50.196081%);fill-opacity:1;stroke-width:2;stroke-linecap:butt;stroke-linejoin:round;stroke:rgb(50.196081%,50.196081%,50.196081%);stroke-opacity:1;stroke-miterlimit:10;" d="M 134.152171 13.771739 C 147.385866 13.771739 158.228257 24.61413 158.228257 37.847825 L 158.228257 134.152171 C 158.228257 147.385866 147.385866 158.228257 134.152171 158.228257 L 37.847825 158.228257 C 24.61413 158.228257 13.771739 147.385866 13.771739 134.152171 L 13.771739 37.847825 C 13.771739 24.61413 24.61413 13.771739 37.847825 13.771739 Z M 20.646739 37.847825 L 20.646739 134.152171 C 20.646739 143.635866 28.36413 151.353257 37.847825 151.353257 L 134.152171 151.353257 C 143.635866 151.353257 151.353257 143.635866 151.353257 134.152171 L 151.353257 37.847825 C 151.353257 28.36413 143.635866 20.646739 134.152171 20.646739 L 37.847825 20.646739 C 28.36413 20.646739 20.646739 28.36413 20.646739 37.847825 Z M 20.646739 37.847825 " transform="matrix(0.14375,0,0,0.14375,0.1375,0.1375)"/>
<path style=" stroke:none;fill-rule:nonzero;fill:rgb(22.352941%,22.352941%,22.352941%);fill-opacity:1;" d="M 5.578125 2.117188 C 3.675781 2.117188 2.117188 3.675781 2.117188 5.578125 L 2.117188 19.421875 C 2.117188 21.324219 3.675781 22.882812 5.578125 22.882812 L 19.421875 22.882812 C 21.324219 22.882812 22.882812 21.324219 22.882812 19.421875 L 22.882812 5.578125 C 22.882812 3.675781 21.324219 2.117188 19.421875 2.117188 Z M 5.578125 3.105469 L 19.421875 3.105469 C 20.785156 3.105469 21.894531 4.214844 21.894531 5.578125 L 21.894531 19.421875 C 21.894531 20.785156 20.785156 21.894531 19.421875 21.894531 L 5.578125 21.894531 C 4.214844 21.894531 3.105469 20.785156 3.105469 19.421875 L 3.105469 5.578125 C 3.105469 4.214844 4.214844 3.105469 5.578125 3.105469 Z M 5.578125 3.105469 "/>
</g>
</svg>
