<?xml version="1.0" encoding="UTF-8"?>
<svg xmlns="http://www.w3.org/2000/svg" xmlns:xlink="http://www.w3.org/1999/xlink" viewBox="0 0 25 25" width="25px" height="25px">
<g id="surface848600">
<path style="fill-rule:nonzero;fill:rgb(50.196081%,50.196081%,50.196081%);fill-opacity:1;stroke-width:2;stroke-linecap:butt;stroke-linejoin:round;stroke:rgb(50.196081%,50.196081%,50.196081%);stroke-opacity:1;stroke-miterlimit:10;" d="M 134.146511 13.753037 L 128.679027 20.634996 L 37.853493 20.634996 C 28.19699 20.634996 20.634996 28.19699 20.634996 37.853493 L 20.634996 134.146511 C 20.634996 143.803015 28.19699 151.365009 37.853493 151.365009 L 134.146511 151.365009 C 143.803015 151.365009 151.365009 143.803015 151.365009 134.146511 L 151.365009 59.560224 L 158.246968 51.590209 L 158.246968 134.146511 C 158.246968 147.584012 147.584012 158.246968 134.146511 158.246968 L 37.853493 158.246968 C 24.415993 158.246968 13.753037 147.584012 13.753037 134.146511 L 13.753037 37.853493 C 13.753037 24.415993 24.415993 13.753037 37.853493 13.753037 Z M 153.949144 31.08034 L 85.129557 112.330974 L 82.871839 115.023915 L 80.2061 112.548586 L 49.550102 84.068702 L 54.283149 79.009238 L 82.246207 105.122599 L 148.780874 26.646509 Z M 153.949144 31.08034 " transform="matrix(0.143605,0,0,0.143605,0.15,0.15)"/>
<path style=" stroke:none;fill-rule:nonzero;fill:rgb(50.196081%,50.196081%,50.196081%);fill-opacity:1;" d="M 5.585938 2.125 C 3.65625 2.125 2.125 3.65625 2.125 5.585938 L 2.125 19.414062 C 2.125 21.34375 3.65625 22.875 5.585938 22.875 L 19.414062 22.875 C 21.34375 22.875 22.875 21.34375 22.875 19.414062 L 22.875 7.558594 L 21.886719 8.703125 L 21.886719 19.414062 C 21.886719 20.800781 20.800781 21.886719 19.414062 21.886719 L 5.585938 21.886719 C 4.199219 21.886719 3.113281 20.800781 3.113281 19.414062 L 3.113281 5.585938 C 3.113281 4.199219 4.199219 3.113281 5.585938 3.113281 L 18.628906 3.113281 L 19.414062 2.125 Z M 21.515625 3.976562 L 11.960938 15.246094 L 7.945312 11.496094 L 7.265625 12.222656 L 11.667969 16.3125 L 12.050781 16.667969 L 12.375 16.28125 L 22.257812 4.613281 Z M 21.515625 3.976562 "/>
</g>
</svg>
