<?xml version="1.0" encoding="UTF-8"?>
<svg xmlns="http://www.w3.org/2000/svg" xmlns:xlink="http://www.w3.org/1999/xlink" viewBox="0 0 25 25" width="25px" height="25px">
<g id="surface5421732">
<path style="fill-rule:nonzero;fill:rgb(50.196081%,50.196081%,50.196081%);fill-opacity:1;stroke-width:2;stroke-linecap:butt;stroke-linejoin:round;stroke:rgb(50.196081%,50.196081%,50.196081%);stroke-opacity:1;stroke-miterlimit:10;" d="M 210.171734 15.365035 C 218.759335 23.952636 218.759335 37.956484 210.171734 46.544084 L 206.572781 50.178671 L 175.393732 18.963988 L 178.992685 15.365035 C 183.268669 11.089052 188.934347 8.915426 194.600026 8.915426 C 200.230071 8.915426 205.89575 11.089052 210.171734 15.365035 Z M 173.718971 30.295346 C 174.431635 32.005739 174.03967 34.001198 172.685609 35.283994 L 26.696393 180.845611 L 45.15439 199.303608 L 190.716007 53.314392 C 191.820636 52.102863 193.53103 51.568366 195.134524 51.995964 C 196.738018 52.387929 198.020813 53.635091 198.412778 55.238585 C 198.840377 56.842079 198.341512 58.552472 197.09435 59.692735 L 50.677536 206.572781 C 50.107404 207.142912 49.39474 207.57051 48.61081 207.78431 L 14.723638 216.799509 C 13.155777 217.227107 11.51665 216.763876 10.376388 215.623613 C 9.236125 214.483351 8.772894 212.844224 9.200492 211.276363 L 18.215691 177.389191 C 18.429491 176.60526 18.857089 175.892596 19.42722 175.322465 L 166.307266 28.905651 C 167.12683 28.050454 168.231459 27.551589 169.407354 27.515956 C 171.295914 27.480323 173.006307 28.584952 173.718971 30.295346 Z M 173.718971 30.295346 " transform="matrix(0.109624,0,0,0.109624,0.1125,0.1125)"/>
<path style=" stroke:none;fill-rule:nonzero;fill:rgb(50.196081%,50.196081%,50.196081%);fill-opacity:1;" d="M 21.445312 1.089844 C 20.824219 1.089844 20.203125 1.328125 19.734375 1.796875 L 19.339844 2.191406 L 22.757812 5.613281 L 23.152344 5.214844 C 24.09375 4.273438 24.09375 2.738281 23.152344 1.796875 C 22.683594 1.328125 22.0625 1.089844 21.445312 1.089844 Z M 18.683594 3.128906 C 18.554688 3.132812 18.433594 3.1875 18.34375 3.28125 L 2.242188 19.332031 C 2.179688 19.394531 2.132812 19.472656 2.109375 19.558594 L 1.121094 23.273438 C 1.074219 23.445312 1.125 23.625 1.25 23.75 C 1.375 23.875 1.554688 23.925781 1.726562 23.878906 L 5.441406 22.890625 C 5.527344 22.867188 5.605469 22.820312 5.667969 22.757812 L 21.71875 6.65625 C 21.855469 6.53125 21.910156 6.34375 21.863281 6.167969 C 21.820312 5.992188 21.679688 5.855469 21.503906 5.8125 C 21.328125 5.765625 21.140625 5.824219 21.019531 5.957031 L 5.0625 21.960938 L 3.039062 19.9375 L 19.042969 3.980469 C 19.191406 3.839844 19.234375 3.621094 19.15625 3.433594 C 19.078125 3.246094 18.890625 3.125 18.683594 3.128906 Z M 18.683594 3.128906 "/>
</g>
</svg>
